#N canvas 145 32 1274 765 12;
#X obj 209 676 dac~ 1 2;
#X msg 628 447 juice;
#X msg 267 565 pos \$1;
#X floatatom 290 519 5 0 0 0 - - -;
#X obj 267 398 metro 100;
#X obj 267 448 f;
#X floatatom 268 483 5 0 0 0 - - -;
#X obj 267 361 tgl 15 0 empty empty empty 17 7 0 10 -262144 -1 -1 1
1;
#X floatatom 338 374 5 0 0 0 - - -;
#X msg 231 399 0;
#X obj 338 419 / 1000;
#X text 293 645 <- the stuff is inside there;
#X msg 480 441 \; pd dsp 1;
#X obj 306 448 + 0.1;
#X text 682 452 the number of grains printed;
#X text 284 330 play - i.e. you can pitch shift;
#X text 211 230 push me;
#N canvas 106 78 450 300 dummy 1;
#X obj 230 -152 block~ 1024;
#X obj 49 -119 inlet;
#X obj 36 12 outlet~;
#X obj 114 12 outlet~;
#X text -37 -63 the name of the array holding the material as an argument
;
#X obj 45 -42 mill~ lafille;
#X obj 199 3 lafille;
#X connect 1 0 5 0;
#X connect 5 0 2 0;
#X connect 5 1 3 0;
#X restore 210 642 pd dummy;
#X msg 210 259 dens 0.005 \, dur 0.3 \, vel 1 \, pos 12.5 \, envq 1
\, envb 0.5 \, pan 0.5 \, panr 1 \, densr 0.2 \, durr 0.2 \, posr 0
;
#X text 751 91;
#X connect 1 0 17 0;
#X connect 2 0 17 0;
#X connect 3 0 2 0;
#X connect 4 0 5 0;
#X connect 5 0 6 0;
#X connect 5 0 2 0;
#X connect 5 0 13 0;
#X connect 7 0 4 0;
#X connect 8 0 10 0;
#X connect 9 0 5 0;
#X connect 10 0 13 1;
#X connect 13 0 5 1;
#X connect 17 0 0 0;
#X connect 17 1 0 1;
#X connect 18 0 17 0;
